<svg id="example-b--disabled--if-mobile.svg" xmlns="http://www.w3.org/2000/svg" width="123" height="18" viewBox="0 0 123 18">
  <defs>
    <style>
      .cls-1 {
        opacity: 0;
      }

      .cls-2 {
        fill-rule: evenodd;
        opacity: 0.5;
      }
    </style>
  </defs>
  <rect id="rect" class="cls-1" width="123" height="18"/>
  <path id="Lorem_Ipsum" data-name="Lorem Ipsum" class="cls-2" d="M3.979,33.08H7V45.6h5.355v2.478H3.979V33.08ZM17.009,43.15a7.137,7.137,0,0,0,.294,1.722,1.913,1.913,0,0,0,.63.966,2.073,2.073,0,0,0,2.163,0,1.913,1.913,0,0,0,.63-0.966,7.147,7.147,0,0,0,.294-1.722q0.073-1.06.074-2.572T21.02,38.015a7.28,7.28,0,0,0-.294-1.722,1.917,1.917,0,0,0-.63-0.977,2.073,2.073,0,0,0-2.163,0,1.918,1.918,0,0,0-.63.977,7.269,7.269,0,0,0-.294,1.722q-0.074,1.05-.073,2.562T17.009,43.15Zm-2.94-5.712a6.961,6.961,0,0,1,.693-2.468,3.882,3.882,0,0,1,1.544-1.607,5.446,5.446,0,0,1,2.709-.578,5.445,5.445,0,0,1,2.709.578,3.881,3.881,0,0,1,1.543,1.607,6.959,6.959,0,0,1,.693,2.468,28.96,28.96,0,0,1,.157,3.139,28.879,28.879,0,0,1-.157,3.15,6.938,6.938,0,0,1-.693,2.457,3.682,3.682,0,0,1-1.543,1.575,5.707,5.707,0,0,1-2.709.546,5.708,5.708,0,0,1-2.709-.546,3.683,3.683,0,0,1-1.544-1.575,6.94,6.94,0,0,1-.693-2.457A31.494,31.494,0,0,1,14.069,37.438ZM32.014,33.08a4.211,4.211,0,0,1,2.94.956A3.742,3.742,0,0,1,36,36.944a4.523,4.523,0,0,1-.609,2.468A2.82,2.82,0,0,1,33.5,40.64v0.042a2.74,2.74,0,0,1,1.659.735,3.116,3.116,0,0,1,.651,1.827q0.042,0.42.063,0.913t0.042,1.1q0.042,1.2.126,1.827a1.174,1.174,0,0,0,.546.861v0.126H33.316a1.62,1.62,0,0,1-.294-0.724,8.085,8.085,0,0,1-.084-0.851l-0.084-2.877a2.369,2.369,0,0,0-.441-1.386,1.617,1.617,0,0,0-1.344-.5H29.452v6.342H26.428V33.08h5.586Zm-1.3,6.552a2.473,2.473,0,0,0,1.68-.514,2.2,2.2,0,0,0,.588-1.733,1.847,1.847,0,0,0-2.1-2.079H29.452v4.326h1.26Zm16.3-4.074H41.653v3.528h5.04v2.478h-5.04V45.6h5.565v2.478H38.629V33.08h8.379v2.478Zm6.8-2.478,2.142,10.584H56L58.159,33.08h4.473V48.074H59.86V36.1H59.818l-2.667,11.97H54.8L52.132,36.1H52.09v11.97H49.318V33.08h4.494Zm17.22,0h3.024V48.074H71.031V33.08ZM81.2,39.863a2,2,0,0,0,1.46-.546,2.294,2.294,0,0,0,.556-1.7,2.659,2.659,0,0,0-.483-1.722,1.983,1.983,0,0,0-1.617-.588h-1.26v4.557H81.2Zm0.924-6.783a4.368,4.368,0,0,1,1.942.389,3.549,3.549,0,0,1,1.27,1.018,3.988,3.988,0,0,1,.693,1.439,6.546,6.546,0,0,1,.21,1.648,5.378,5.378,0,0,1-.347,2.016A3.659,3.659,0,0,1,84.923,41a4.041,4.041,0,0,1-1.5.819,6.581,6.581,0,0,1-1.953.273H79.851v5.985H76.827V33.08h5.292Zm8.568,10.752a4.994,4.994,0,0,0,.084.956,1.664,1.664,0,0,0,.315.724,1.548,1.548,0,0,0,.62.462,2.465,2.465,0,0,0,.977.168,1.932,1.932,0,0,0,1.249-.451,1.693,1.693,0,0,0,.556-1.4,2.506,2.506,0,0,0-.136-0.871,1.726,1.726,0,0,0-.452-0.662,3.21,3.21,0,0,0-.829-0.535,11.947,11.947,0,0,0-1.27-.493A10.851,10.851,0,0,1,90.057,41a4.689,4.689,0,0,1-1.229-.934,3.342,3.342,0,0,1-.724-1.239,5.211,5.211,0,0,1-.231-1.627,4.193,4.193,0,0,1,1.239-3.318,4.967,4.967,0,0,1,3.4-1.092,7.394,7.394,0,0,1,1.859.221,3.9,3.9,0,0,1,1.47.714,3.344,3.344,0,0,1,.966,1.26,4.438,4.438,0,0,1,.347,1.837v0.42h-2.9a3.008,3.008,0,0,0-.378-1.649,1.392,1.392,0,0,0-1.26-.578,2.1,2.1,0,0,0-.84.147,1.416,1.416,0,0,0-.535.389,1.335,1.335,0,0,0-.273.556,2.846,2.846,0,0,0-.074.651,2.164,2.164,0,0,0,.294,1.166,2.633,2.633,0,0,0,1.26.871L94.782,39.8a7.154,7.154,0,0,1,1.407.788,3.846,3.846,0,0,1,.871.882,2.94,2.94,0,0,1,.452,1.039,5.819,5.819,0,0,1,.126,1.26,4.127,4.127,0,0,1-1.375,3.454,6.058,6.058,0,0,1-3.833,1.082,5.02,5.02,0,0,1-3.664-1.113A4.344,4.344,0,0,1,87.663,44V43.391h3.024v0.441Zm11.823-.294a6.659,6.659,0,0,0,.074,1.039,2.313,2.313,0,0,0,.273.819,1.452,1.452,0,0,0,.546.546,2.025,2.025,0,0,0,1.753,0,1.493,1.493,0,0,0,.536-0.546,2.4,2.4,0,0,0,.273-0.819,6.919,6.919,0,0,0,.073-1.039V33.08h3.024V43.538a6.048,6.048,0,0,1-.4,2.362,3.767,3.767,0,0,1-1.071,1.481,3.628,3.628,0,0,1-1.533.735,8.3,8.3,0,0,1-1.785.189,9.31,9.31,0,0,1-1.785-.168,3.624,3.624,0,0,1-1.533-.682A3.5,3.5,0,0,1,99.885,46a6.388,6.388,0,0,1-.4-2.457V33.08h3.024V43.538ZM116.055,33.08L118.2,43.664h0.042L120.4,33.08h4.473V48.074H122.1V36.1h-0.042l-2.667,11.97h-2.352L114.375,36.1h-0.042v11.97h-2.772V33.08h4.494Z" transform="translate(-2.969 -32.031)"/>
</svg>
