<svg id="example-b--current.svg" xmlns="http://www.w3.org/2000/svg" width="82" height="12" viewBox="0 0 82 12">
  <defs>
    <style>
      .cls-1 {
        opacity: 0;
      }

      .cls-2 {
        fill: #fff;
        fill-rule: evenodd;
      }
    </style>
  </defs>
  <rect id="rect" class="cls-1" width="82" height="12"/>
  <path id="Lorem_Ipsum" data-name="Lorem Ipsum" class="cls-2" d="M3.642,18.731H5.658v8.344h3.57v1.652H3.642v-10Zm8.687,6.713a4.758,4.758,0,0,0,.2,1.148,1.275,1.275,0,0,0,.42.644,1.382,1.382,0,0,0,1.442,0,1.275,1.275,0,0,0,.42-0.644,4.768,4.768,0,0,0,.2-1.148q0.049-.707.049-1.715T15,22.021a4.856,4.856,0,0,0-.2-1.148,1.278,1.278,0,0,0-.42-0.651,1.382,1.382,0,0,0-1.442,0,1.278,1.278,0,0,0-.42.651,4.846,4.846,0,0,0-.2,1.148q-0.049.7-.049,1.708T12.329,25.444Zm-1.96-3.808a4.639,4.639,0,0,1,.462-1.645A2.588,2.588,0,0,1,11.86,18.92a3.63,3.63,0,0,1,1.806-.385,3.63,3.63,0,0,1,1.806.385A2.588,2.588,0,0,1,16.5,19.991a4.639,4.639,0,0,1,.462,1.645,19.307,19.307,0,0,1,.105,2.093,19.252,19.252,0,0,1-.105,2.1,4.625,4.625,0,0,1-.462,1.638,2.455,2.455,0,0,1-1.029,1.05,3.8,3.8,0,0,1-1.806.364,3.8,3.8,0,0,1-1.806-.364,2.455,2.455,0,0,1-1.029-1.05,4.625,4.625,0,0,1-.462-1.638A20.983,20.983,0,0,1,10.369,21.636Zm11.963-2.905a2.808,2.808,0,0,1,1.96.637,2.5,2.5,0,0,1,.7,1.939,3.015,3.015,0,0,1-.406,1.645,1.88,1.88,0,0,1-1.26.819V23.8a1.827,1.827,0,0,1,1.106.49,2.077,2.077,0,0,1,.434,1.218q0.028,0.28.042,0.609t0.028,0.735q0.028,0.8.084,1.218a0.783,0.783,0,0,0,.364.574v0.084H23.2a1.08,1.08,0,0,1-.2-0.483,5.39,5.39,0,0,1-.056-0.567l-0.056-1.918a1.579,1.579,0,0,0-.294-0.924,1.078,1.078,0,0,0-.9-0.336H20.624v4.228H18.608v-10h3.724ZM21.464,23.1a1.649,1.649,0,0,0,1.12-.343,1.469,1.469,0,0,0,.392-1.155,1.231,1.231,0,0,0-1.4-1.386H20.624V23.1h0.84Zm10.864-2.716h-3.57v2.352h3.36v1.652h-3.36v2.688h3.71v1.652H26.742v-10h5.586v1.652Zm4.536-1.652,1.428,7.056H38.32l1.442-7.056h2.982v10H40.9v-7.98H40.868l-1.778,7.98H37.522l-1.778-7.98H35.716v7.98H33.868v-10h3Zm11.48,0H50.36v10H48.344v-10Zm6.776,4.522a1.329,1.329,0,0,0,.973-0.364,1.529,1.529,0,0,0,.371-1.134,1.772,1.772,0,0,0-.322-1.148,1.322,1.322,0,0,0-1.078-.392h-0.84v3.038h0.9Zm0.616-4.522a2.912,2.912,0,0,1,1.3.259,2.365,2.365,0,0,1,.847.679,2.657,2.657,0,0,1,.462.959,4.361,4.361,0,0,1,.14,1.1,3.585,3.585,0,0,1-.231,1.344,2.438,2.438,0,0,1-.644.938,2.694,2.694,0,0,1-1,.546,4.388,4.388,0,0,1-1.3.182H54.224v3.99H52.208v-10h3.528ZM61.448,25.9a3.329,3.329,0,0,0,.056.637,1.107,1.107,0,0,0,.21.483,1.031,1.031,0,0,0,.413.308,1.643,1.643,0,0,0,.651.112,1.288,1.288,0,0,0,.833-0.3,1.129,1.129,0,0,0,.371-0.931,1.671,1.671,0,0,0-.091-0.581,1.152,1.152,0,0,0-.3-0.441,2.14,2.14,0,0,0-.553-0.357A7.973,7.973,0,0,0,62.19,24.5a7.234,7.234,0,0,1-1.162-.49,3.123,3.123,0,0,1-.819-0.623,2.225,2.225,0,0,1-.483-0.826,3.471,3.471,0,0,1-.154-1.085,2.8,2.8,0,0,1,.826-2.212,3.312,3.312,0,0,1,2.268-.728,4.929,4.929,0,0,1,1.239.147,2.6,2.6,0,0,1,.98.476,2.23,2.23,0,0,1,.644.84,2.96,2.96,0,0,1,.231,1.225V21.5H63.828a2.006,2.006,0,0,0-.252-1.1,0.928,0.928,0,0,0-.84-0.385,1.4,1.4,0,0,0-.56.1,0.943,0.943,0,0,0-.357.259,0.889,0.889,0,0,0-.182.371,1.892,1.892,0,0,0-.049.434,1.442,1.442,0,0,0,.2.777,1.755,1.755,0,0,0,.84.581l1.554,0.672a4.775,4.775,0,0,1,.938.525,2.568,2.568,0,0,1,.581.588,1.962,1.962,0,0,1,.3.693,3.879,3.879,0,0,1,.084.84,2.751,2.751,0,0,1-.917,2.3,4.039,4.039,0,0,1-2.555.721,3.347,3.347,0,0,1-2.443-.742,2.9,2.9,0,0,1-.735-2.128V25.6h2.016V25.9Zm7.882-.2a4.507,4.507,0,0,0,.049.693,1.565,1.565,0,0,0,.182.546,0.972,0.972,0,0,0,.364.364,1.351,1.351,0,0,0,1.169,0,0.991,0.991,0,0,0,.357-0.364,1.573,1.573,0,0,0,.182-0.546,4.533,4.533,0,0,0,.049-0.693V18.731H73.7V25.7a4.034,4.034,0,0,1-.266,1.575,2.513,2.513,0,0,1-.714.987,2.42,2.42,0,0,1-1.022.49,5.536,5.536,0,0,1-1.19.126,6.2,6.2,0,0,1-1.19-.112,2.415,2.415,0,0,1-1.022-.455,2.332,2.332,0,0,1-.714-0.973,4.259,4.259,0,0,1-.266-1.638V18.731H69.33V25.7Zm9.03-6.972,1.428,7.056h0.028l1.442-7.056H84.24v10H82.392v-7.98H82.364l-1.778,7.98H79.018l-1.778-7.98H77.212v7.98H75.364v-10h3Z" transform="translate(-2.969 -18.031)"/>
</svg>
